<?xml version="1.0" encoding="UTF-8"?>
<svg width="152px" height="152px" viewBox="0 0 152 152" version="1.1" xmlns="http://www.w3.org/2000/svg" xmlns:xlink="http://www.w3.org/1999/xlink">
    <!-- Generator: Sketch 53.2 (72643) - https://sketchapp.com -->
    <title>Combined Shape</title>
    <desc>Created with Sketch.</desc>
    <defs>
        <radialGradient cx="20.4853286%" cy="4.77177189%" fx="20.4853286%" fy="4.77177189%" r="152.420036%" gradientTransform="translate(0.204853,0.047718),scale(1.000000,0.999385),rotate(53.383227),translate(-0.204853,-0.047718)" id="radialGradient-1">
            <stop stop-color="#F43535" offset="0%"></stop>
            <stop stop-color="#5375B3" offset="100%"></stop>
        </radialGradient>
    </defs>
    <g id="Homepage-Concept" stroke="none" stroke-width="1" fill="none" fill-rule="evenodd">
        <g id="Desktop-HD" transform="translate(-86.000000, -101.000000)" fill="url(#radialGradient-1)">
            <path d="M86.3569487,185.321955 C97.8614818,183.329785 107.977481,180.159687 118.137787,175.404743 C118.802379,178.587394 119.578767,181.89132 120.459566,185.303019 C123.475716,196.985802 127.632876,209.481732 131.76929,219.80218 C133.580033,224.320025 135.269852,228.111297 136.613172,230.670123 C137.396773,232.162766 138.077364,233.280013 138.779825,234.130758 C139.683391,235.225058 140.588716,236.000498 142.191305,236.468063 C145.967026,237.56965 149.048639,235.192607 149.905432,232.122424 C154.340587,216.229757 158.184846,205.035394 163.501245,192.852489 C163.845577,195.285736 164.229238,198.134045 164.713517,201.812742 C166.417377,214.755668 166.68035,216.681917 167.363511,220.781092 C167.840017,223.64027 168.273465,225.746598 168.727172,227.254972 C169.115635,228.546438 169.524699,229.521508 170.259023,230.482989 C172.702941,233.682914 177.587863,234.097377 180.319669,230.518413 C187.784095,220.7392 203.613737,179.176366 208.036652,159.550307 C210.929327,146.714475 213.359849,134.512415 215.327768,122.942861 C229.268343,136.720459 237.906546,155.851449 237.906546,177 C237.906546,218.973641 203.880187,253 161.906546,253 C122.745181,253 90.5018228,223.380493 86.3569487,185.321955 Z M86,173.197826 C87.9810095,132.990623 121.207872,101 161.906546,101 C177.739225,101 192.441135,105.841401 204.612605,114.124532 C202.514196,127.457864 199.753673,141.721145 196.330236,156.912157 C193.421428,169.819579 184.803965,193.954833 177.857803,209.66538 C177.549866,207.371821 177.154679,204.377442 176.610868,200.246526 C175.763004,193.805953 175.217091,189.859516 174.646552,186.200206 C173.896633,181.39039 173.22437,177.936169 172.529906,175.603783 C171.924217,173.569555 171.318029,172.200529 170.079701,170.959427 C168.33899,169.214817 165.700128,168.394243 163.019751,169.534357 C161.240935,170.290986 160.247004,171.492811 159.522853,172.972391 C152.125164,188.087288 147.30658,199.670208 142.59375,214.549613 C138.746015,204.844185 134.885257,193.174677 132.078597,182.303329 C130.926519,177.840861 129.97032,173.593894 129.226027,169.616439 C132.597524,167.682935 136.028276,165.566697 139.567397,163.25378 C149.183633,156.969292 153.77386,148.416859 151.875988,140.20565 C150.03399,132.236181 142.501953,127.02006 133.392552,127.02006 C122.083551,127.02006 116.284429,135.496349 115.456573,148.640015 C115.188729,152.892518 115.406215,157.735385 116.059163,163.077432 C106.353223,167.934611 96.8658884,171.162277 86,173.197826 Z M133.002637,153.208685 C131.135359,154.429005 129.30378,155.58955 127.49882,156.692807 C127.319777,154.027511 127.29487,151.58487 127.432841,149.394342 C127.911533,141.79426 129.809525,139.02006 133.392552,139.02006 C137.213644,139.02006 139.680446,140.728381 140.184223,142.907989 C140.812452,145.626045 138.763354,149.44389 133.002637,153.208685 Z" id="Combined-Shape"></path>
        </g>
    </g>
</svg>